<svg width="48" height="48" viewBox="0 0 48 48" xmlns="http://www.w3.org/2000/svg">
    <g fill-rule="nonzero" fill="none">
        <path d="M24.218 48c3.938 0 7.817-.967 11.302-2.817l-.73-1.393c-9.074 4.822-20.228 2.898-27.196-4.69C.627 31.512-.417 20.151 5.05 11.401l-1.322-.841a24.595 24.595 0 0 0-.714 24.816C7.275 43.163 15.397 47.998 24.218 48zM23.783 1.576c8.251.002 15.85 4.525 19.836 11.808a23.006 23.006 0 0 1-.667 23.215l1.321.841C50.116 28.087 49 15.943 41.551 7.832 34.103-.279 22.18-2.336 12.48 2.818l.73 1.393a22.553 22.553 0 0 1 10.573-2.635z" fill="#F1BB0C"/>
        <path d="M37.2 44.16h4.32a.72.72 0 0 0 .72-.72v-4.32a.72.72 0 0 0-.72-.72H37.2a.72.72 0 0 0-.72.72v4.32a.72.72 0 0 0 .72.72zm.72-4.32h2.88v2.88h-2.88v-2.88zM6.48 9.6h4.32a.72.72 0 0 0 .72-.72V4.56a.72.72 0 0 0-.72-.72H6.48a.72.72 0 0 0-.72.72v4.32a.72.72 0 0 0 .72.72zm.72-4.32h2.88v2.88H7.2V5.28z" fill="#FFF"/>
        <g fill="#FFF">
            <path d="M35.5 23.5c.28 0 .5.22.5.5s-.22.5-.5.5H35v-1h.5zM24.5 23.5H35v1H24.5z"/>
            <path d="M33.5 36H24c.28 0 .5-.22.5-.5V35h9c.83 0 1.5-.67 1.5-1.5v-9h.5c.28 0 .5-.22.5-.5v9.5a2.5 2.5 0 0 1-2.5 2.5zM36 14.5V24c0-.28-.22-.5-.5-.5H35v-9c0-.83-.67-1.5-1.5-1.5h-9v-.5c0-.28-.22-.5-.5-.5h9.5a2.5 2.5 0 0 1 2.5 2.5z"/>
            <path d="M32 18c.28 0 .5.22.5.5s-.22.5-.5.5h-4c-.28 0-.5-.22-.5-.5s.22-.5.5-.5h4zM32 28c.28 0 .5.22.5.5s-.22.5-.5.5h-4c-.28 0-.5-.22-.5-.5s.22-.5.5-.5h4zM32 31c.28 0 .5.22.5.5s-.22.5-.5.5h-4c-.28 0-.5-.22-.5-.5s.22-.5.5-.5h4zM24.5 35v.5c0 .28-.22.5-.5.5s-.5-.22-.5-.5V35h1zM23.5 24.5h1V35h-1zM23.5 23.5h1v1h-1zM23.5 13h1v10.5h-1zM24.5 12.5v.5h-1v-.5c0-.28.22-.5.5-.5s.5.22.5.5zM13 23.5h10.5v1H13zM20 18c.28 0 .5.22.5.5s-.22.5-.5.5h-1.5v-1H20zM19.85 31.15c.2.19.2.51 0 .7a.47.47 0 0 1-.35.15.47.47 0 0 1-.35-.15L18 30.7l.7-.7 1.15 1.15zM19.15 28.15c.19-.2.51-.2.7 0 .2.19.2.51 0 .7L18.7 30l-.7-.7 1.15-1.15zM17.297 29.999l.7-.7.7.7-.7.7zM18.5 19v1.5c0 .28-.22.5-.5.5s-.5-.22-.5-.5V19h1zM17.5 18h1v1h-1zM18.5 16.5V18h-1v-1.5c0-.28.22-.5.5-.5s.5.22.5.5z"/>
            <path d="m18 29.3-.7.7-1.15-1.15c-.2-.19-.2-.51 0-.7.19-.2.51-.2.7 0L18 29.3zM17.5 18v1H16c-.28 0-.5-.22-.5-.5s.22-.5.5-.5h1.5zM16.85 31.85a.47.47 0 0 1-.35.15.47.47 0 0 1-.35-.15c-.2-.19-.2-.51 0-.7L17.3 30l.7.7-1.15 1.15zM13 23.5v1h-.5c-.28 0-.5-.22-.5-.5s.22-.5.5-.5h.5z"/>
            <path d="M12 14.5a2.5 2.5 0 0 1 2.5-2.5H24c-.28 0-.5.22-.5.5v.5h-9c-.83 0-1.5.67-1.5 1.5v9h-.5c-.28 0-.5.22-.5.5v-9.5zM13 33.5c0 .83.67 1.5 1.5 1.5h9v.5c0 .28.22.5.5.5h-9.5a2.5 2.5 0 0 1-2.5-2.5V24c0 .28.22.5.5.5h.5v9z"/>
        </g>
    </g>
</svg>
